<svg width="32" height="32" viewBox="0 0 32 32" fill="none"
  xmlns="http://www.w3.org/2000/svg">
  <circle cx="16" cy="16" r="16" fill="#171717"/>
  <path d="M5.14773 22H7.25568V17.0568H12.6477V22H14.7614V10.3636H12.6477V15.2898H7.25568V10.3636H5.14773V22ZM18.654 22H23.3642C26.029 22 27.3358 20.642 27.3358 18.8295C27.3358 17.0682 26.0858 16.0341 24.8472 15.9716V15.858C25.9835 15.5909 26.8813 14.7955 26.8813 13.3807C26.8813 11.6477 25.6313 10.3636 23.1085 10.3636H18.654V22ZM20.7619 20.2386V16.8295H23.0858C24.3869 16.8295 25.1938 17.625 25.1938 18.6648C25.1938 19.5909 24.5574 20.2386 23.029 20.2386H20.7619ZM20.7619 15.3125V12.1023H22.8926C24.1313 12.1023 24.7733 12.7557 24.7733 13.6534C24.7733 14.6761 23.9438 15.3125 22.8472 15.3125H20.7619Z" fill="white"/>
</svg>
